<?xml version="1.0" encoding="UTF-8" standalone="no"?>
<!DOCTYPE svg PUBLIC "-//W3C//DTD SVG 1.1//EN" "http://www.w3.org/Graphics/SVG/1.1/DTD/svg11.dtd">
<svg width="100%" height="100%" viewBox="0 0 1000 1000" version="1.1" xmlns="http://www.w3.org/2000/svg" xmlns:xlink="http://www.w3.org/1999/xlink" xml:space="preserve" xmlns:serif="http://www.serif.com/" style="fill-rule:evenodd;clip-rule:evenodd;stroke-linecap:round;stroke-linejoin:round;stroke-miterlimit:1.5;">
    <g>
        <g transform="matrix(1.331152,0,0,1.331152,-172.738604,-165.271854)">
            <path d="M488.338,669.888C495.793,669.833 502.954,672.796 508.19,678.104C524.651,694.791 561.558,732.205 577.818,748.689C579.159,750.048 579.553,752.079 578.816,753.841C578.079,755.602 576.357,756.749 574.448,756.749C528.508,756.749 358.45,756.749 358.45,756.749C319.652,751.551 289.065,735.087 266.298,711.438C242.551,686.77 227.412,659.472 222.824,626.633L222.824,375.817C227.71,335.981 245.695,304.367 274.87,279.379C297.614,259.899 322.473,245.364 353.858,241.416L639.729,241.416C676.503,247.498 705.723,265.193 726.676,287.875C746.406,309.231 760.881,334.372 765.558,369.618L765.558,586.661C765.558,588.341 764.508,589.842 762.929,590.419C761.351,590.995 759.58,590.523 758.497,589.238C739.284,566.449 716.908,547.349 686.531,537.583C682.919,536.441 680.463,533.09 680.463,529.301C680.447,500.163 680.447,382.706 680.447,382.706C677.479,368.192 671.704,356.582 662.395,346.367C655.048,338.307 642.636,332.472 626.258,328.516L368.324,328.516C353.069,331.035 343.337,335.897 332.803,345.463C320.388,356.738 313.38,368.337 311.379,382.859L311.379,616.607C311.996,630.494 318.873,642.669 328.783,651.599C340.309,661.984 351.21,668.502 366.793,670.796C366.793,670.796 455.868,670.131 488.338,669.888Z" style="stroke:black;stroke-width:0.75px;"/>
        </g>
        <g transform="matrix(1.331152,0,0,1.331152,-172.738604,-165.271854)">
            <path d="M565.135,623.812C563.837,622.491 563.458,620.521 564.174,618.813C564.89,617.106 566.561,615.995 568.412,615.995C591.408,615.995 644.563,615.995 668.885,615.995C676.92,615.995 684.62,619.213 690.266,624.93C715.923,650.912 790.155,726.084 813.394,749.618C814.581,750.82 814.93,752.617 814.279,754.176C813.627,755.734 812.103,756.749 810.414,756.749C786.63,756.749 727.092,756.749 704.611,756.749C698.995,756.749 693.614,754.493 689.676,750.488C667.244,727.671 589.892,648.992 565.135,623.812Z" style="stroke:black;stroke-width:0.75px;"/>
        </g>
    </g>
    <g transform="matrix(1.751254,0,0,1.751254,-397.1323,-430.508124)">
        <path d="M527.7,532.423C527.777,532.019 528.132,531.728 528.543,531.731C528.954,531.734 529.304,532.031 529.375,532.435C533.301,554.676 547.663,567.327 570.588,572.109C570.985,572.191 571.27,572.541 571.269,572.947C571.268,573.352 570.982,573.702 570.585,573.782C545.461,578.896 533.003,593.058 529.543,613.646C529.476,614.053 529.126,614.353 528.714,614.358C528.302,614.364 527.945,614.074 527.866,613.669C523.376,590.586 509.588,577.599 487.372,573.761C486.959,573.69 486.655,573.337 486.646,572.918C486.638,572.5 486.927,572.134 487.336,572.046C509.257,567.304 523.402,554.787 527.7,532.423Z" style="stroke:black;stroke-width:0.57px;"/>
    </g>
</svg>
